# xmcd CD database file
#
# Track frame offsets:
#	150
#	15775
#	40742
#	63654
#	77685
#	91833
#	113273
#	134239
#	157320
#	181287
#	199051
#	223335
#	241237
#
# Disc length: 3583 seconds
#
# Revision: 0
# Processed by: cddbd v1.4PL0 Copyright (c) Steve Scherf et al.
# Submitted via: CDex 1.50
#
DISCID=ad0dfd0d
DTITLE=Tilmann Dehnhard Quintett - Koala Lounge
DYEAR=2002
DGENRE=Jazz
TTITLE0=Fleurs de lis
TTITLE1=Sudden Summer
TTITLE2=Reality Check
TTITLE3=Tenor Tune
TTITLE4=Lonely Womanizer
TTITLE5=Basso Ostinato
TTITLE6=Deep Blue
TTITLE7=Let's Go
TTITLE8=Crocodile Smile
TTITLE9=Joggernauts
TTITLE10=Koala Lounge
TTITLE11=Song
TTITLE12=Rockin' Chair
EXTD=YEAR: 2002
EXTT0=
EXTT1=
EXTT2=
EXTT3=
EXTT4=
EXTT5=
EXTT6=
EXTT7=
EXTT8=
EXTT9=
EXTT10=
EXTT11=
EXTT12=
PLAYORDER=
